<svg width="32" height="32" viewBox="0 0 32 32" fill="none" xmlns="http://www.w3.org/2000/svg">
<path d="M16 7V25" stroke="#A81D1D" stroke-linecap="round" stroke-linejoin="round"/>
<path fill-rule="evenodd" clip-rule="evenodd" d="M26.5591 7.43169C21.9366 4.7277 17.3538 6.56336 16 7.22187C14.6461 6.56336 10.0625 4.72861 5.44085 7.43169C5.16903 7.5909 4.99994 7.89678 5 8.22917V25.0826C4.99994 25.4032 5.15737 25.7001 5.41422 25.8638C5.67106 26.0274 5.98926 26.0336 6.25146 25.88C10.8207 23.2106 15.5541 25.8564 15.5989 25.88C15.615 25.8891 15.6319 25.8918 15.6471 25.9C15.6624 25.9082 15.6869 25.9164 15.7072 25.9245L15.7351 25.9364C15.7461 25.9364 15.7554 25.9454 15.7656 25.9491C15.8415 25.9746 15.9204 25.9886 16 25.9909V25.9909C16.0169 25.9909 16.033 25.9845 16.0499 25.9836C16.0668 25.9827 16.0922 25.9772 16.1142 25.9745C16.1739 25.9655 16.2326 25.95 16.2894 25.9282C16.3139 25.9182 16.3367 25.9082 16.3596 25.8964V25.8964C16.3706 25.89 16.3824 25.8964 16.3934 25.8855C16.4408 25.8592 21.1784 23.2124 25.7426 25.8855C26.006 26.0427 26.3274 26.0377 26.5865 25.8723C26.8455 25.7069 27.003 25.4061 27 25.0826V8.22917C27 7.89678 26.8309 7.5909 26.5591 7.43169Z" stroke="#A81D1D" stroke-linecap="round" stroke-linejoin="round"/>
</svg>
