<svg width="32" height="32" viewBox="0 0 32 32" fill="none" xmlns="http://www.w3.org/2000/svg">
<path fill-rule="evenodd" clip-rule="evenodd" d="M27.722 16.3243V16.3243C22.2548 17.8996 17.8996 22.1622 16.3243 27.722V27.722C16.2317 28.0927 15.7683 28.0927 15.6757 27.722V27.722C14.1004 22.2548 9.83784 17.8996 4.27799 16.3243V16.3243C3.90734 16.2317 3.90734 15.7683 4.27799 15.6757V15.6757C9.74517 14.1004 14.1004 9.83784 15.6757 4.27799V4.27799C15.7683 3.90734 16.2317 3.90734 16.3243 4.27799V4.27799C17.8996 9.74517 22.1622 14.1004 27.722 15.6757V15.6757C28.0927 15.7683 28.0927 16.2317 27.722 16.3243Z" stroke="black" stroke-linecap="round" stroke-linejoin="round"/>
<path d="M9.91477 5.19886C7.58523 5.82386 5.76705 7.64205 5.14205 9.91477C5.08523 10.0284 4.91477 10.0284 4.85795 9.91477C4.23295 7.58523 2.41477 5.82386 0.0852273 5.14205C-0.0284091 5.08523 -0.0284091 4.91477 0.0852273 4.85795C2.41477 4.23295 4.17614 2.41477 4.85795 0.0852273C4.91477 -0.0284091 5.08523 -0.0284091 5.14205 0.0852273C5.76705 2.41477 7.58523 4.17614 9.91477 4.85795C10.0284 4.97159 10.0284 5.14205 9.91477 5.19886Z" fill="black"/>
</svg>
